<mxfile host="app.diagrams.net" agent="Mozilla/5.0 (Windows NT 10.0; Win64; x64) AppleWebKit/537.36 (KHTML, like Gecko) Chrome/131.0.0.0 Safari/537.36" version="24.8.6">
  <diagram id="C5RBs43oDa-KdzZeNtuy" name="Page-1">
    <mxGraphModel dx="1562" dy="810" grid="1" gridSize="10" guides="1" tooltips="1" connect="1" arrows="1" fold="1" page="1" pageScale="1" pageWidth="827" pageHeight="1169" math="0" shadow="0">
      <root>
        <mxCell id="WIyWlLk6GJQsqaUBKTNV-0" />
        <mxCell id="WIyWlLk6GJQsqaUBKTNV-1" parent="WIyWlLk6GJQsqaUBKTNV-0" />
        <mxCell id="zkfFHV4jXpPFQw0GAbJ--0" value="SiteLocation " style="swimlane;fontStyle=0;align=center;verticalAlign=top;childLayout=stackLayout;horizontal=1;startSize=26;horizontalStack=0;resizeParent=1;resizeLast=0;collapsible=1;marginBottom=0;rounded=0;shadow=0;strokeWidth=1;" parent="WIyWlLk6GJQsqaUBKTNV-1" vertex="1">
          <mxGeometry x="220" y="120" width="160" height="138" as="geometry">
            <mxRectangle x="220" y="120" width="160" height="26" as="alternateBounds" />
          </mxGeometry>
        </mxCell>
        <mxCell id="zkfFHV4jXpPFQw0GAbJ--1" value="Site Name" style="text;align=left;verticalAlign=top;spacingLeft=4;spacingRight=4;overflow=hidden;rotatable=0;points=[[0,0.5],[1,0.5]];portConstraint=eastwest;" parent="zkfFHV4jXpPFQw0GAbJ--0" vertex="1">
          <mxGeometry y="26" width="160" height="26" as="geometry" />
        </mxCell>
        <mxCell id="zkfFHV4jXpPFQw0GAbJ--2" value="Site type" style="text;align=left;verticalAlign=top;spacingLeft=4;spacingRight=4;overflow=hidden;rotatable=0;points=[[0,0.5],[1,0.5]];portConstraint=eastwest;rounded=0;shadow=0;html=0;" parent="zkfFHV4jXpPFQw0GAbJ--0" vertex="1">
          <mxGeometry y="52" width="160" height="26" as="geometry" />
        </mxCell>
        <mxCell id="zkfFHV4jXpPFQw0GAbJ--3" value="Easting" style="text;align=left;verticalAlign=top;spacingLeft=4;spacingRight=4;overflow=hidden;rotatable=0;points=[[0,0.5],[1,0.5]];portConstraint=eastwest;rounded=0;shadow=0;html=0;" parent="zkfFHV4jXpPFQw0GAbJ--0" vertex="1">
          <mxGeometry y="78" width="160" height="26" as="geometry" />
        </mxCell>
        <mxCell id="cH4Yggzv1ZhbGqcqMfhR-1" value="Northing" style="text;strokeColor=none;align=left;fillColor=none;html=1;verticalAlign=top;whiteSpace=wrap;rounded=0;spacingLeft=4;spacingRight=4;" vertex="1" parent="zkfFHV4jXpPFQw0GAbJ--0">
          <mxGeometry y="104" width="160" height="30" as="geometry" />
        </mxCell>
        <mxCell id="cH4Yggzv1ZhbGqcqMfhR-2" value="Water Quality" style="swimlane;fontStyle=0;childLayout=stackLayout;horizontal=1;startSize=26;fillColor=none;horizontalStack=0;resizeParent=1;resizeParentMax=0;resizeLast=0;collapsible=1;marginBottom=0;whiteSpace=wrap;html=1;" vertex="1" parent="WIyWlLk6GJQsqaUBKTNV-1">
          <mxGeometry x="550" y="70" width="170" height="680" as="geometry">
            <mxRectangle x="540" y="20" width="110" height="30" as="alternateBounds" />
          </mxGeometry>
        </mxCell>
        <mxCell id="cH4Yggzv1ZhbGqcqMfhR-29" value="&lt;p style=&quot;line-height: 100%;&quot;&gt;&lt;code data-immersive-translate-walked=&quot;51381624-1146-47ab-9a6e-6d469dfeb2ce&quot;&gt;&lt;font face=&quot;Helvetica&quot;&gt;WaterQualityID&lt;/font&gt;&lt;/code&gt;&lt;/p&gt;" style="text;whiteSpace=wrap;html=1;verticalAlign=middle;" vertex="1" parent="cH4Yggzv1ZhbGqcqMfhR-2">
          <mxGeometry y="26" width="170" height="30" as="geometry" />
        </mxCell>
        <mxCell id="cH4Yggzv1ZhbGqcqMfhR-3" value="Total_Dissolved_Solids" style="text;strokeColor=none;fillColor=none;align=left;verticalAlign=top;spacingLeft=4;spacingRight=4;overflow=hidden;rotatable=0;points=[[0,0.5],[1,0.5]];portConstraint=eastwest;whiteSpace=wrap;html=1;" vertex="1" parent="cH4Yggzv1ZhbGqcqMfhR-2">
          <mxGeometry y="56" width="170" height="22" as="geometry" />
        </mxCell>
        <mxCell id="cH4Yggzv1ZhbGqcqMfhR-4" value="Turbidity" style="text;strokeColor=none;fillColor=none;align=left;verticalAlign=top;spacingLeft=4;spacingRight=4;overflow=hidden;rotatable=0;points=[[0,0.5],[1,0.5]];portConstraint=eastwest;whiteSpace=wrap;html=1;" vertex="1" parent="cH4Yggzv1ZhbGqcqMfhR-2">
          <mxGeometry y="78" width="170" height="26" as="geometry" />
        </mxCell>
        <mxCell id="cH4Yggzv1ZhbGqcqMfhR-5" value="Alkalinity" style="text;strokeColor=none;fillColor=none;align=left;verticalAlign=top;spacingLeft=4;spacingRight=4;overflow=hidden;rotatable=0;points=[[0,0.5],[1,0.5]];portConstraint=eastwest;whiteSpace=wrap;html=1;" vertex="1" parent="cH4Yggzv1ZhbGqcqMfhR-2">
          <mxGeometry y="104" width="170" height="26" as="geometry" />
        </mxCell>
        <mxCell id="cH4Yggzv1ZhbGqcqMfhR-11" value="Chloride" style="text;strokeColor=none;align=left;fillColor=none;html=1;verticalAlign=top;whiteSpace=wrap;rounded=0;spacingLeft=4;spacingRight=4;" vertex="1" parent="cH4Yggzv1ZhbGqcqMfhR-2">
          <mxGeometry y="130" width="170" height="30" as="geometry" />
        </mxCell>
        <mxCell id="cH4Yggzv1ZhbGqcqMfhR-12" value="Silica_Reactive" style="text;whiteSpace=wrap;spacingLeft=4;spacingRight=4;" vertex="1" parent="cH4Yggzv1ZhbGqcqMfhR-2">
          <mxGeometry y="160" width="170" height="40" as="geometry" />
        </mxCell>
        <mxCell id="cH4Yggzv1ZhbGqcqMfhR-13" value="Ammonia" style="text;whiteSpace=wrap;" vertex="1" parent="cH4Yggzv1ZhbGqcqMfhR-2">
          <mxGeometry y="200" width="170" height="40" as="geometry" />
        </mxCell>
        <mxCell id="cH4Yggzv1ZhbGqcqMfhR-14" value="Nitrate_Nitrite" style="text;whiteSpace=wrap;" vertex="1" parent="cH4Yggzv1ZhbGqcqMfhR-2">
          <mxGeometry y="240" width="170" height="40" as="geometry" />
        </mxCell>
        <mxCell id="cH4Yggzv1ZhbGqcqMfhR-15" value="Nitrogen_Total" style="text;whiteSpace=wrap;" vertex="1" parent="cH4Yggzv1ZhbGqcqMfhR-2">
          <mxGeometry y="280" width="170" height="40" as="geometry" />
        </mxCell>
        <mxCell id="cH4Yggzv1ZhbGqcqMfhR-16" value="Phosphorus_Total" style="text;whiteSpace=wrap;" vertex="1" parent="cH4Yggzv1ZhbGqcqMfhR-2">
          <mxGeometry y="320" width="170" height="40" as="geometry" />
        </mxCell>
        <mxCell id="cH4Yggzv1ZhbGqcqMfhR-17" value="pH_field" style="text;whiteSpace=wrap;" vertex="1" parent="cH4Yggzv1ZhbGqcqMfhR-2">
          <mxGeometry y="360" width="170" height="40" as="geometry" />
        </mxCell>
        <mxCell id="cH4Yggzv1ZhbGqcqMfhR-18" value="Dissolved_Organic_Carbon" style="text;whiteSpace=wrap;" vertex="1" parent="cH4Yggzv1ZhbGqcqMfhR-2">
          <mxGeometry y="400" width="170" height="40" as="geometry" />
        </mxCell>
        <mxCell id="cH4Yggzv1ZhbGqcqMfhR-19" value="Total_Organic_Carbon" style="text;whiteSpace=wrap;" vertex="1" parent="cH4Yggzv1ZhbGqcqMfhR-2">
          <mxGeometry y="440" width="170" height="40" as="geometry" />
        </mxCell>
        <mxCell id="cH4Yggzv1ZhbGqcqMfhR-20" value="Chlorophyll_a" style="text;whiteSpace=wrap;" vertex="1" parent="cH4Yggzv1ZhbGqcqMfhR-2">
          <mxGeometry y="480" width="170" height="40" as="geometry" />
        </mxCell>
        <mxCell id="cH4Yggzv1ZhbGqcqMfhR-21" value="Chlorophyll_b" style="text;whiteSpace=wrap;" vertex="1" parent="cH4Yggzv1ZhbGqcqMfhR-2">
          <mxGeometry y="520" width="170" height="40" as="geometry" />
        </mxCell>
        <mxCell id="cH4Yggzv1ZhbGqcqMfhR-22" value="Pheophytin_a" style="text;whiteSpace=wrap;" vertex="1" parent="cH4Yggzv1ZhbGqcqMfhR-2">
          <mxGeometry y="560" width="170" height="40" as="geometry" />
        </mxCell>
        <mxCell id="cH4Yggzv1ZhbGqcqMfhR-23" value="Total_Algae_Cell_Count" style="text;whiteSpace=wrap;" vertex="1" parent="cH4Yggzv1ZhbGqcqMfhR-2">
          <mxGeometry y="600" width="170" height="40" as="geometry" />
        </mxCell>
        <mxCell id="cH4Yggzv1ZhbGqcqMfhR-24" value="Total_Biovolume" style="text;whiteSpace=wrap;" vertex="1" parent="cH4Yggzv1ZhbGqcqMfhR-2">
          <mxGeometry y="640" width="170" height="40" as="geometry" />
        </mxCell>
        <mxCell id="cH4Yggzv1ZhbGqcqMfhR-25" value="Measurements" style="swimlane;fontStyle=0;childLayout=stackLayout;horizontal=1;startSize=26;fillColor=none;horizontalStack=0;resizeParent=1;resizeParentMax=0;resizeLast=0;collapsible=1;marginBottom=0;whiteSpace=wrap;html=1;" vertex="1" parent="WIyWlLk6GJQsqaUBKTNV-1">
          <mxGeometry x="310" y="30" width="140" height="104" as="geometry" />
        </mxCell>
        <mxCell id="cH4Yggzv1ZhbGqcqMfhR-26" value="&lt;code data-immersive-translate-walked=&quot;51381624-1146-47ab-9a6e-6d469dfeb2ce&quot;&gt;MeasurementID&lt;/code&gt;" style="text;strokeColor=none;fillColor=none;align=left;verticalAlign=top;spacingLeft=4;spacingRight=4;overflow=hidden;rotatable=0;points=[[0,0.5],[1,0.5]];portConstraint=eastwest;whiteSpace=wrap;html=1;" vertex="1" parent="cH4Yggzv1ZhbGqcqMfhR-25">
          <mxGeometry y="26" width="140" height="26" as="geometry" />
        </mxCell>
        <mxCell id="cH4Yggzv1ZhbGqcqMfhR-27" value="&lt;code data-immersive-translate-walked=&quot;51381624-1146-47ab-9a6e-6d469dfeb2ce&quot;&gt;SiteID&lt;/code&gt;" style="text;strokeColor=none;fillColor=none;align=left;verticalAlign=top;spacingLeft=4;spacingRight=4;overflow=hidden;rotatable=0;points=[[0,0.5],[1,0.5]];portConstraint=eastwest;whiteSpace=wrap;html=1;" vertex="1" parent="cH4Yggzv1ZhbGqcqMfhR-25">
          <mxGeometry y="52" width="140" height="26" as="geometry" />
        </mxCell>
        <mxCell id="cH4Yggzv1ZhbGqcqMfhR-28" value="Date" style="text;strokeColor=none;fillColor=none;align=left;verticalAlign=top;spacingLeft=4;spacingRight=4;overflow=hidden;rotatable=0;points=[[0,0.5],[1,0.5]];portConstraint=eastwest;whiteSpace=wrap;html=1;" vertex="1" parent="cH4Yggzv1ZhbGqcqMfhR-25">
          <mxGeometry y="78" width="140" height="26" as="geometry" />
        </mxCell>
      </root>
    </mxGraphModel>
  </diagram>
</mxfile>
